<mxfile host="65bd71144e">
    <diagram id="TEZT2EGVyZ5z_e8cdYjf" name="Page-1">
        <mxGraphModel dx="1074" dy="269" grid="1" gridSize="10" guides="1" tooltips="1" connect="1" arrows="1" fold="1" page="1" pageScale="1" pageWidth="827" pageHeight="1169" math="0" shadow="0">
            <root>
                <mxCell id="0"/>
                <mxCell id="1" parent="0"/>
                <mxCell id="2" style="edgeStyle=none;html=1;exitX=0.5;exitY=0.5;exitDx=0;exitDy=0;exitPerimeter=0;entryX=0.006;entryY=0.471;entryDx=0;entryDy=0;entryPerimeter=0;" edge="1" parent="1" source="sy4UfYn98RBiKkmZp2fs-6" target="sy4UfYn98RBiKkmZp2fs-7">
                    <mxGeometry relative="1" as="geometry"/>
                </mxCell>
                <mxCell id="sy4UfYn98RBiKkmZp2fs-6" value="Actor" style="shape=umlActor;verticalLabelPosition=bottom;verticalAlign=top;html=1;outlineConnect=0;" parent="1" vertex="1">
                    <mxGeometry x="260" y="390" width="30" height="60" as="geometry"/>
                </mxCell>
                <mxCell id="sy4UfYn98RBiKkmZp2fs-7" value="" style="whiteSpace=wrap;html=1;aspect=fixed;" parent="1" vertex="1">
                    <mxGeometry x="320" y="260" width="340" height="340" as="geometry"/>
                </mxCell>
            </root>
        </mxGraphModel>
    </diagram>
</mxfile>